<svg xmlns="http://www.w3.org/2000/svg" version="1.1" xmlns:xlink="http://www.w3.org/1999/xlink" xmlns:svgjs="http://svgjs.com/svgjs" width="1440" height="560" preserveAspectRatio="none" viewBox="0 0 1440 560"><g mask="url(&quot;#SvgjsMask1012&quot;)" fill="none"><rect width="1440" height="560" x="0" y="0" fill="rgba(255, 255, 255, 1)"></rect><path d="M1044.69 442.8L1087.46 442.8L1087.46 485.57L1044.69 485.57z" fill="rgba(72, 86, 150, 1)"></path><path d="M802.59 146.98L843.27 146.98L843.27 187.66L802.59 187.66z" fill="rgba(249, 199, 132, 1)"></path><path d="M1431.5 120.09L1462.71 120.09L1462.71 151.3L1431.5 151.3z" stroke="rgba(231, 231, 231, 1)"></path><path d="M73.29 160.58a0.73 0.73 0 1 0-0.24-1.44z" stroke="rgba(249, 199, 132, 1)"></path><path d="M123.55 337.1a42.87 42.87 0 1 0-73.01-44.95z" stroke="rgba(231, 231, 231, 1)"></path><path d="M533.65 94.27a30.22 30.22 0 1 0-1.73-60.41z" fill="rgba(249, 199, 132, 1)"></path><path d="M1206.12 370.53a20.21 20.21 0 1 0-34.88-20.42z" fill="rgba(231, 231, 231, 1)"></path><path d="M659.03 231.47a21.29 21.29 0 1 0-25.64-33.99z" fill="rgba(249, 199, 132, 1)"></path><path d="M917.62 231.38 a18.26 18.26 0 1 0 36.52 0 a18.26 18.26 0 1 0 -36.52 0z" stroke="rgba(72, 86, 150, 1)"></path><path d="M643.49 51.91 a24.25 24.25 0 1 0 48.5 0 a24.25 24.25 0 1 0 -48.5 0z" stroke="rgba(231, 231, 231, 1)"></path><path d="M842 535.69a48.85 48.85 0 1 0 53.82-81.54z" stroke="rgba(249, 199, 132, 1)"></path><path d="M1129.81 139.46 a51.07 51.07 0 1 0 102.14 0 a51.07 51.07 0 1 0 -102.14 0z" stroke="rgba(231, 231, 231, 1)"></path><path d="M682.2 378.65L693.24 378.65L693.24 399.23L682.2 399.23z" fill="rgba(249, 199, 132, 1)"></path><path d="M769.23 431.8a15.43 15.43 0 1 0-27.02 14.9z" stroke="rgba(249, 199, 132, 1)"></path><path d="M460.48 265.27L464.08 265.27L464.08 299.09L460.48 299.09z" stroke="rgba(72, 86, 150, 1)"></path><path d="M870.14 508.26L883.57 508.26L883.57 541.13L870.14 541.13z" stroke="rgba(72, 86, 150, 1)"></path><path d="M612.92 505.06 a52.54 52.54 0 1 0 105.08 0 a52.54 52.54 0 1 0 -105.08 0z" stroke="rgba(72, 86, 150, 1)"></path><path d="M1236.3 92.99 a7.8 7.8 0 1 0 15.6 0 a7.8 7.8 0 1 0 -15.6 0z" fill="rgba(72, 86, 150, 1)"></path><path d="M876.83 468.14L923.5 468.14L923.5 490.98L876.83 490.98z" fill="rgba(72, 86, 150, 1)"></path><path d="M161.93 324.73a34.25 34.25 0 1 0-68.49 1.23z" fill="rgba(231, 231, 231, 1)"></path><path d="M491.66 555.51 a13.47 13.47 0 1 0 26.94 0 a13.47 13.47 0 1 0 -26.94 0z" stroke="rgba(72, 86, 150, 1)"></path><path d="M1081.06 112.65L1084.71 112.65L1084.71 161.87L1081.06 161.87z" fill="rgba(231, 231, 231, 1)"></path><path d="M749.8 206.91a39.64 39.64 0 1 0-78.64-10.11z" stroke="rgba(249, 199, 132, 1)"></path><path d="M195.32 159.32a3.46 3.46 0 1 0 5.65-4z" stroke="rgba(72, 86, 150, 1)"></path><path d="M766.3 185.11L779.75 185.11L779.75 198.56L766.3 198.56z" fill="rgba(72, 86, 150, 1)"></path><path d="M114.46 467.68L157.42 467.68L157.42 510.64L114.46 510.64z" stroke="rgba(72, 86, 150, 1)"></path><path d="M1170.42 306.63L1181.57 306.63L1181.57 317.78L1170.42 317.78z" fill="rgba(231, 231, 231, 1)"></path><path d="M1032.34 40a1.18 1.18 0 1 0 0.25 2.35z" fill="rgba(72, 86, 150, 1)"></path><path d="M680.44 400.46 a12.03 12.03 0 1 0 24.06 0 a12.03 12.03 0 1 0 -24.06 0z" fill="rgba(72, 86, 150, 1)"></path><path d="M287.45 30.27a37.88 37.88 0 1 0-75.76-0.75z" fill="rgba(72, 86, 150, 1)"></path><path d="M1406.49 89.92a40.39 40.39 0 1 0-26.67-76.25z" stroke="rgba(72, 86, 150, 1)"></path><path d="M1.84 345.33L41.49 345.33L41.49 400.45L1.84 400.45z" fill="rgba(72, 86, 150, 1)"></path><path d="M1066.19 376.99L1070.24 376.99L1070.24 381.04L1066.19 381.04z" stroke="rgba(249, 199, 132, 1)"></path></g><defs><mask id="SvgjsMask1012"><rect width="1440" height="560" fill="#ffffff"></rect></mask></defs></svg>