<svg xmlns="http://www.w3.org/2000/svg" version="1.1" xmlns:xlink="http://www.w3.org/1999/xlink" xmlns:svgjs="http://svgjs.com/svgjs" width="1440" height="560" preserveAspectRatio="none" viewBox="0 0 1440 560"><g mask="url(&quot;#SvgjsMask1017&quot;)" fill="none"><rect width="1440" height="560" x="0" y="0" fill="rgba(255, 255, 255, 1)"></rect><path d="M837.66 436.27L845.58 436.27L845.58 459.94L837.66 459.94z" fill="rgba(249, 199, 132, 1)"></path><path d="M-29.74 421.43 a47.94 47.94 0 1 0 95.88 0 a47.94 47.94 0 1 0 -95.88 0z" fill="rgba(72, 86, 150, 1)"></path><path d="M934.34 222.87 a40.45 40.45 0 1 0 80.9 0 a40.45 40.45 0 1 0 -80.9 0z" stroke="rgba(231, 231, 231, 1)"></path><path d="M271.01 330.09a50.57 50.57 0 1 0-98.71 22.03z" stroke="rgba(231, 231, 231, 1)"></path><path d="M591.82 100.11 a48.3 48.3 0 1 0 96.6 0 a48.3 48.3 0 1 0 -96.6 0z" stroke="rgba(72, 86, 150, 1)"></path><path d="M896.32 366.83 a45.25 45.25 0 1 0 90.5 0 a45.25 45.25 0 1 0 -90.5 0z" stroke="rgba(72, 86, 150, 1)"></path><path d="M706.52 559.97 a48.59 48.59 0 1 0 97.18 0 a48.59 48.59 0 1 0 -97.18 0z" stroke="rgba(72, 86, 150, 1)"></path><path d="M58.45 521.59 a30.56 30.56 0 1 0 61.12 0 a30.56 30.56 0 1 0 -61.12 0z" fill="rgba(249, 199, 132, 1)"></path><path d="M1319.62 280.79 a13.85 13.85 0 1 0 27.7 0 a13.85 13.85 0 1 0 -27.7 0z" fill="rgba(72, 86, 150, 1)"></path><path d="M1388.76 141.99 a16.39 16.39 0 1 0 32.78 0 a16.39 16.39 0 1 0 -32.78 0z" stroke="rgba(72, 86, 150, 1)"></path><path d="M956.09 39.96L988.16 39.96L988.16 88.74L956.09 88.74z" fill="rgba(249, 199, 132, 1)"></path><path d="M816.05 532.83a43.17 43.17 0 1 0-75.22 42.39z" fill="rgba(72, 86, 150, 1)"></path><path d="M1187.22 544.29a28.25 28.25 0 1 0-51.02 24.26z" stroke="rgba(231, 231, 231, 1)"></path><path d="M209.93 555.38 a37.81 37.81 0 1 0 75.62 0 a37.81 37.81 0 1 0 -75.62 0z" fill="rgba(231, 231, 231, 1)"></path><path d="M55.76 546.5 a14.62 14.62 0 1 0 29.24 0 a14.62 14.62 0 1 0 -29.24 0z" fill="rgba(231, 231, 231, 1)"></path><path d="M1266.42 520.08a16.28 16.28 0 1 0 25.19-20.63z" fill="rgba(72, 86, 150, 1)"></path><path d="M380.49 482.93L428.27 482.93L428.27 517.81L380.49 517.81z" stroke="rgba(231, 231, 231, 1)"></path><path d="M975.12 344.82 a52.53 52.53 0 1 0 105.06 0 a52.53 52.53 0 1 0 -105.06 0z" stroke="rgba(72, 86, 150, 1)"></path><path d="M987.58 297.65L1011.99 297.65L1011.99 322.19L987.58 322.19z" stroke="rgba(249, 199, 132, 1)"></path><path d="M660.78 401.1L668.38 401.1L668.38 412.62L660.78 412.62z" fill="rgba(231, 231, 231, 1)"></path><path d="M1230.21 479.91L1239.49 479.91L1239.49 513.41L1230.21 513.41z" stroke="rgba(72, 86, 150, 1)"></path><path d="M976.37 70.93L983.38 70.93L983.38 77.94L976.37 77.94z" stroke="rgba(231, 231, 231, 1)"></path><path d="M1113.62 213.26L1159.77 213.26L1159.77 259.41L1113.62 259.41z" stroke="rgba(231, 231, 231, 1)"></path><path d="M953.86 188.26L972.16 188.26L972.16 206.56L953.86 206.56z" fill="rgba(249, 199, 132, 1)"></path><path d="M990.33 140.23L1005.42 140.23L1005.42 175.72L990.33 175.72z" stroke="rgba(249, 199, 132, 1)"></path><path d="M386.48 166.54L431.95 166.54L431.95 212.01L386.48 212.01z" fill="rgba(231, 231, 231, 1)"></path><path d="M1094.93 189.05L1121.27 189.05L1121.27 215.39L1094.93 215.39z" stroke="rgba(249, 199, 132, 1)"></path><path d="M326.79 54.84L374.54 54.84L374.54 102.59L326.79 102.59z" fill="rgba(231, 231, 231, 1)"></path><path d="M621.27 34.21L655.78 34.21L655.78 68.72L621.27 68.72z" fill="rgba(231, 231, 231, 1)"></path><path d="M72.89 44.79a5.37 5.37 0 1 0-5.13-9.43z" fill="rgba(249, 199, 132, 1)"></path><path d="M950.79 311.63L995.6 311.63L995.6 356.44L950.79 356.44z" stroke="rgba(249, 199, 132, 1)"></path><path d="M1253.99 476.11a37.39 37.39 0 1 0-73.98 10.96z" fill="rgba(72, 86, 150, 1)"></path><path d="M633.07 53.28a20.65 20.65 0 1 0 38.86-13.97z" stroke="rgba(231, 231, 231, 1)"></path></g><defs><mask id="SvgjsMask1017"><rect width="1440" height="560" fill="#ffffff"></rect></mask></defs></svg>