<svg xmlns="http://www.w3.org/2000/svg" version="1.1" xmlns:xlink="http://www.w3.org/1999/xlink" xmlns:svgjs="http://svgjs.com/svgjs" width="1440" height="560" preserveAspectRatio="none" viewBox="0 0 1440 560"><g mask="url(&quot;#SvgjsMask1019&quot;)" fill="none"><rect width="1440" height="560" x="0" y="0" fill="rgba(255, 255, 255, 1)"></rect><path d="M707.89 404.52L754.91 404.52L754.91 453.36L707.89 453.36z" stroke="rgba(231, 231, 231, 1)"></path><path d="M1078.11 549.44L1127.58 549.44L1127.58 598.91L1078.11 598.91z" fill="rgba(72, 86, 150, 1)"></path><path d="M1283.34 553.99L1286.1 553.99L1286.1 601.74L1283.34 601.74z" stroke="rgba(231, 231, 231, 1)"></path><path d="M102.26 506.3L137.91 506.3L137.91 511.63L102.26 511.63z" fill="rgba(72, 86, 150, 1)"></path><path d="M562.39 14.1 a44.85 44.85 0 1 0 89.7 0 a44.85 44.85 0 1 0 -89.7 0z" fill="rgba(249, 199, 132, 1)"></path><path d="M920.44 353.68a37.28 37.28 0 1 0 68.1 30.34z" stroke="rgba(249, 199, 132, 1)"></path><path d="M231.83 248.48 a1.17 1.17 0 1 0 2.34 0 a1.17 1.17 0 1 0 -2.34 0z" fill="rgba(231, 231, 231, 1)"></path><path d="M915.66 525.92a14.88 14.88 0 1 0 28.76 7.64z" fill="rgba(231, 231, 231, 1)"></path><path d="M276.78 188.02 a55.2 55.2 0 1 0 110.4 0 a55.2 55.2 0 1 0 -110.4 0z" fill="rgba(231, 231, 231, 1)"></path><path d="M937.48 156.97a48.86 48.86 0 1 0 49.94-84z" fill="rgba(72, 86, 150, 1)"></path><path d="M242.27 311.1L277.27 311.1L277.27 351L242.27 351z" stroke="rgba(249, 199, 132, 1)"></path><path d="M135.48 219.84a43.87 43.87 0 1 0 85.98 17.46z" fill="rgba(231, 231, 231, 1)"></path><path d="M946.31 262.55 a49.64 49.64 0 1 0 99.28 0 a49.64 49.64 0 1 0 -99.28 0z" stroke="rgba(249, 199, 132, 1)"></path><path d="M728.07 211.48L782.18 211.48L782.18 265.59L728.07 265.59z" fill="rgba(231, 231, 231, 1)"></path><path d="M373.9 147.56L421.86 147.56L421.86 192.21L373.9 192.21z" stroke="rgba(72, 86, 150, 1)"></path><path d="M62.97 302.97L91.54 302.97L91.54 331.54L62.97 331.54z" fill="rgba(231, 231, 231, 1)"></path><path d="M1373.22 349.82L1394.81 349.82L1394.81 371.41L1373.22 371.41z" stroke="rgba(231, 231, 231, 1)"></path><path d="M838.72 243.4 a25.82 25.82 0 1 0 51.64 0 a25.82 25.82 0 1 0 -51.64 0z" stroke="rgba(231, 231, 231, 1)"></path><path d="M430.2 69.74L439.89 69.74L439.89 83.79L430.2 83.79z" fill="rgba(72, 86, 150, 1)"></path><path d="M262.16 120.22a48.21 48.21 0 1 0 10.33-95.86z" fill="rgba(249, 199, 132, 1)"></path><path d="M849.18 356.61a2.85 2.85 0 1 0-3.81 4.24z" stroke="rgba(72, 86, 150, 1)"></path><path d="M1393.87 317.7a35.24 35.24 0 1 0 68.4 17.01z" fill="rgba(72, 86, 150, 1)"></path><path d="M49.48 526.95a0.87 0.87 0 1 0-1.24 1.23z" fill="rgba(72, 86, 150, 1)"></path><path d="M450.3 351.06L502.83 351.06L502.83 374.51L450.3 374.51z" fill="rgba(249, 199, 132, 1)"></path><path d="M198.93 242.67L209.27 242.67L209.27 260.28L198.93 260.28z" fill="rgba(249, 199, 132, 1)"></path><path d="M1396.06 383.78 a21.88 21.88 0 1 0 43.76 0 a21.88 21.88 0 1 0 -43.76 0z" fill="rgba(249, 199, 132, 1)"></path><path d="M1084.89 26.56a39.17 39.17 0 1 0 41.47 66.46z" stroke="rgba(231, 231, 231, 1)"></path><path d="M756.35 190.76a27.19 27.19 0 1 0-8.53 53.71z" stroke="rgba(72, 86, 150, 1)"></path><path d="M248.33 407.18L254.03 407.18L254.03 412.88L248.33 412.88z" fill="rgba(249, 199, 132, 1)"></path><path d="M2.59 205.37L21.36 205.37L21.36 224.14L2.59 224.14z" stroke="rgba(231, 231, 231, 1)"></path><path d="M1402.97 300.04L1427.2 300.04L1427.2 308.4L1402.97 308.4z" fill="rgba(231, 231, 231, 1)"></path><path d="M1077.57 535.84L1088.56 535.84L1088.56 546.83L1077.57 546.83z" stroke="rgba(249, 199, 132, 1)"></path><path d="M806.78 555.62L817.38 555.62L817.38 566.22L806.78 566.22z" stroke="rgba(72, 86, 150, 1)"></path></g><defs><mask id="SvgjsMask1019"><rect width="1440" height="560" fill="#ffffff"></rect></mask></defs></svg>