<svg xmlns="http://www.w3.org/2000/svg" version="1.1" xmlns:xlink="http://www.w3.org/1999/xlink" xmlns:svgjs="http://svgjs.com/svgjs" width="1440" height="560" preserveAspectRatio="none" viewBox="0 0 1440 560"><g mask="url(&quot;#SvgjsMask1009&quot;)" fill="none"><rect width="1440" height="560" x="0" y="0" fill="rgba(255, 255, 255, 1)"></rect><path d="M617.88 68.91a55.27 55.27 0 1 0 23.66 107.98z" fill="rgba(249, 199, 132, 1)"></path><path d="M207.75 479.96L211.45 479.96L211.45 528.15L207.75 528.15z" fill="rgba(231, 231, 231, 1)"></path><path d="M1014.12 350.71L1058.11 350.71L1058.11 394.7L1014.12 394.7z" stroke="rgba(72, 86, 150, 1)"></path><path d="M196.46 123.57 a38.25 38.25 0 1 0 76.5 0 a38.25 38.25 0 1 0 -76.5 0z" stroke="rgba(249, 199, 132, 1)"></path><path d="M1392.78 347.83L1401.17 347.83L1401.17 356.22L1392.78 356.22z" stroke="rgba(72, 86, 150, 1)"></path><path d="M557.15 293.42a17.13 17.13 0 1 0 20.6 27.37z" fill="rgba(249, 199, 132, 1)"></path><path d="M1291.54 154.56a31.58 31.58 0 1 0 61.41 14.76z" fill="rgba(72, 86, 150, 1)"></path><path d="M241.65 43.95L265.46 43.95L265.46 74.53L241.65 74.53z" fill="rgba(72, 86, 150, 1)"></path><path d="M728.5 265.81a15.37 15.37 0 1 0-14.76-26.96z" fill="rgba(231, 231, 231, 1)"></path><path d="M524.28 457.67L573.27 457.67L573.27 506.66L524.28 506.66z" fill="rgba(231, 231, 231, 1)"></path><path d="M896.13 538.14L929.17 538.14L929.17 582.11L896.13 582.11z" stroke="rgba(231, 231, 231, 1)"></path><path d="M160.82 401.52 a0.77 0.77 0 1 0 1.54 0 a0.77 0.77 0 1 0 -1.54 0z" stroke="rgba(231, 231, 231, 1)"></path><path d="M1367.51 421.31L1405.27 421.31L1405.27 431.55L1367.51 431.55z" stroke="rgba(231, 231, 231, 1)"></path><path d="M1091.51 151.16a36.5 36.5 0 1 0 42.86 59.09z" stroke="rgba(72, 86, 150, 1)"></path><path d="M1301.3 63.03 a55.73 55.73 0 1 0 111.46 0 a55.73 55.73 0 1 0 -111.46 0z" fill="rgba(231, 231, 231, 1)"></path><path d="M855.62 211.61a49 49 0 1 0-94.26-26.82z" stroke="rgba(249, 199, 132, 1)"></path><path d="M1022.47 261.43L1030.17 261.43L1030.17 269.13L1022.47 269.13z" stroke="rgba(231, 231, 231, 1)"></path><path d="M31.85 303.58L54.77 303.58L54.77 347.65L31.85 347.65z" stroke="rgba(72, 86, 150, 1)"></path><path d="M656.16 446.56 a42.23 42.23 0 1 0 84.46 0 a42.23 42.23 0 1 0 -84.46 0z" fill="rgba(249, 199, 132, 1)"></path><path d="M40.85 254.84 a23.02 23.02 0 1 0 46.04 0 a23.02 23.02 0 1 0 -46.04 0z" fill="rgba(231, 231, 231, 1)"></path><path d="M247.6 267.39L298.95 267.39L298.95 287.41L247.6 287.41z" stroke="rgba(249, 199, 132, 1)"></path><path d="M698.55 164.34a31.33 31.33 0 1 0-62.17-7.87z" stroke="rgba(72, 86, 150, 1)"></path><path d="M1178.95 462.25L1233.75 462.25L1233.75 517.05L1178.95 517.05z" stroke="rgba(72, 86, 150, 1)"></path><path d="M1365.01 276.87a15.11 15.11 0 1 0 1.61-30.18z" fill="rgba(249, 199, 132, 1)"></path><path d="M1427.63 62.34L1431.7 62.34L1431.7 66.41L1427.63 66.41z" stroke="rgba(249, 199, 132, 1)"></path><path d="M493.52 246.15L518.23 246.15L518.23 270.86L493.52 270.86z" stroke="rgba(249, 199, 132, 1)"></path><path d="M885.63 410.73L912.2 410.73L912.2 434.16L885.63 434.16z" fill="rgba(231, 231, 231, 1)"></path><path d="M838.42 362.67a27.66 27.66 0 1 0-0.43 55.32z" fill="rgba(249, 199, 132, 1)"></path><path d="M978.53 261.06L1021.33 261.06L1021.33 264.8L978.53 264.8z" fill="rgba(231, 231, 231, 1)"></path><path d="M1080.84 202L1097.6 202L1097.6 256.82L1080.84 256.82z" fill="rgba(249, 199, 132, 1)"></path><path d="M780.82 170.37a23.93 23.93 0 1 0 40.74-25.1z" fill="rgba(249, 199, 132, 1)"></path><path d="M906.87 48.46L914.16 48.46L914.16 55.75L906.87 55.75z" stroke="rgba(249, 199, 132, 1)"></path><path d="M937.55 487.48L970.91 487.48L970.91 522.38L937.55 522.38z" fill="rgba(231, 231, 231, 1)"></path></g><defs><mask id="SvgjsMask1009"><rect width="1440" height="560" fill="#ffffff"></rect></mask></defs></svg>