<svg xmlns="http://www.w3.org/2000/svg" version="1.1" xmlns:xlink="http://www.w3.org/1999/xlink" xmlns:svgjs="http://svgjs.com/svgjs" width="1440" height="560" preserveAspectRatio="none" viewBox="0 0 1440 560"><g mask="url(&quot;#SvgjsMask1013&quot;)" fill="none"><rect width="1440" height="560" x="0" y="0" fill="rgba(255, 255, 255, 1)"></rect><path d="M461.87 307.98L490.32 307.98L490.32 340.71L461.87 340.71z" stroke="rgba(231, 231, 231, 1)"></path><path d="M650.03 34.14 a42.2 42.2 0 1 0 84.4 0 a42.2 42.2 0 1 0 -84.4 0z" fill="rgba(249, 199, 132, 1)"></path><path d="M883.76 256.62a9.36 9.36 0 1 0-18.65-1.68z" fill="rgba(249, 199, 132, 1)"></path><path d="M116.55 163.2L156.23 163.2L156.23 202.88L116.55 202.88z" fill="rgba(231, 231, 231, 1)"></path><path d="M218.83 161.77a9.96 9.96 0 1 0-19.68 3.05z" stroke="rgba(231, 231, 231, 1)"></path><path d="M384.88 117.01 a18.2 18.2 0 1 0 36.4 0 a18.2 18.2 0 1 0 -36.4 0z" fill="rgba(231, 231, 231, 1)"></path><path d="M364.26 273.77L397.93 273.77L397.93 314.93L364.26 314.93z" fill="rgba(72, 86, 150, 1)"></path><path d="M891.54-9.04a50.5 50.5 0 1 0-84.77 54.91z" stroke="rgba(249, 199, 132, 1)"></path><path d="M1410.13 390.77L1440.13 390.77L1440.13 420.77L1410.13 420.77z" stroke="rgba(72, 86, 150, 1)"></path><path d="M1278.14 546.87L1288.22 546.87L1288.22 556.95L1278.14 556.95z" fill="rgba(249, 199, 132, 1)"></path><path d="M1094.59 45.19L1143.3 45.19L1143.3 99.74L1094.59 99.74z" stroke="rgba(231, 231, 231, 1)"></path><path d="M1030.62 196.91L1075.65 196.91L1075.65 236.06L1030.62 236.06z" fill="rgba(72, 86, 150, 1)"></path><path d="M803.33 598.03a52.88 52.88 0 1 0 47.51-94.49z" fill="rgba(72, 86, 150, 1)"></path><path d="M683.89 265.04 a40.1 40.1 0 1 0 80.2 0 a40.1 40.1 0 1 0 -80.2 0z" stroke="rgba(249, 199, 132, 1)"></path><path d="M215.69 345.83L233.23 345.83L233.23 363.37L215.69 363.37z" fill="rgba(249, 199, 132, 1)"></path><path d="M170.23 343.38 a47.42 47.42 0 1 0 94.84 0 a47.42 47.42 0 1 0 -94.84 0z" fill="rgba(231, 231, 231, 1)"></path><path d="M1393.75 127.08L1434.85 127.08L1434.85 181.01L1393.75 181.01z" stroke="rgba(249, 199, 132, 1)"></path><path d="M620.23 302.35a46.98 46.98 0 1 0 49.06-80.14z" fill="rgba(72, 86, 150, 1)"></path><path d="M46.1 426.81L98.28 426.81L98.28 478.99L46.1 478.99z" stroke="rgba(231, 231, 231, 1)"></path><path d="M336.8 330.87L378.45 330.87L378.45 372.52L336.8 372.52z" stroke="rgba(249, 199, 132, 1)"></path><path d="M1158.77 473.51a55.66 55.66 0 1 0-92.23-62.33z" stroke="rgba(72, 86, 150, 1)"></path><path d="M543.59 348.2L572.58 348.2L572.58 381.75L543.59 381.75z" stroke="rgba(72, 86, 150, 1)"></path><path d="M611.61 26.92 a31.58 31.58 0 1 0 63.16 0 a31.58 31.58 0 1 0 -63.16 0z" fill="rgba(72, 86, 150, 1)"></path><path d="M713.51 242.03L759.15 242.03L759.15 280.83L713.51 280.83z" fill="rgba(72, 86, 150, 1)"></path><path d="M1119.03 321.41 a41.85 41.85 0 1 0 83.7 0 a41.85 41.85 0 1 0 -83.7 0z" stroke="rgba(72, 86, 150, 1)"></path><path d="M1417.8 339.69L1422.94 339.69L1422.94 344.83L1417.8 344.83z" stroke="rgba(249, 199, 132, 1)"></path><path d="M610.65 136.55 a29.51 29.51 0 1 0 59.02 0 a29.51 29.51 0 1 0 -59.02 0z" stroke="rgba(249, 199, 132, 1)"></path><path d="M1266.55 17.52L1310.56 17.52L1310.56 61.53L1266.55 61.53z" fill="rgba(231, 231, 231, 1)"></path><path d="M855.77 355.47a9.96 9.96 0 1 0 12.24 15.72z" stroke="rgba(231, 231, 231, 1)"></path><path d="M1431.35 58.52a35.81 35.81 0 1 0-69.68-16.57z" fill="rgba(72, 86, 150, 1)"></path><path d="M673.13 231.92a3.49 3.49 0 1 0 5.66 4.1z" stroke="rgba(249, 199, 132, 1)"></path><path d="M1168.35 276.04L1201.08 276.04L1201.08 308.77L1168.35 308.77z" stroke="rgba(231, 231, 231, 1)"></path><path d="M434.28 150.17L468.21 150.17L468.21 163.06L434.28 163.06z" fill="rgba(72, 86, 150, 1)"></path></g><defs><mask id="SvgjsMask1013"><rect width="1440" height="560" fill="#ffffff"></rect></mask></defs></svg>