<svg xmlns="http://www.w3.org/2000/svg" version="1.1" xmlns:xlink="http://www.w3.org/1999/xlink" xmlns:svgjs="http://svgjs.com/svgjs" width="1440" height="560" preserveAspectRatio="none" viewBox="0 0 1440 560"><g mask="url(&quot;#SvgjsMask1016&quot;)" fill="none"><rect width="1440" height="560" x="0" y="0" fill="rgba(255, 255, 255, 1)"></rect><path d="M970.8 39.01L1005.91 39.01L1005.91 81.63L970.8 81.63z" stroke="rgba(72, 86, 150, 1)"></path><path d="M370.62 300.17 a36.74 36.74 0 1 0 73.48 0 a36.74 36.74 0 1 0 -73.48 0z" stroke="rgba(249, 199, 132, 1)"></path><path d="M669.54 291.65 a15.17 15.17 0 1 0 30.34 0 a15.17 15.17 0 1 0 -30.34 0z" stroke="rgba(249, 199, 132, 1)"></path><path d="M616.78 270.43L657.67 270.43L657.67 311.32L616.78 311.32z" fill="rgba(231, 231, 231, 1)"></path><path d="M502.45 312.59a16.79 16.79 0 1 0 17.71-28.53z" fill="rgba(72, 86, 150, 1)"></path><path d="M939.63 460.43L985.21 460.43L985.21 506.01L939.63 506.01z" fill="rgba(231, 231, 231, 1)"></path><path d="M162.04 466.25L170.73 466.25L170.73 490.64L162.04 490.64z" fill="rgba(72, 86, 150, 1)"></path><path d="M70.38 126.45 a53.91 53.91 0 1 0 107.82 0 a53.91 53.91 0 1 0 -107.82 0z" stroke="rgba(249, 199, 132, 1)"></path><path d="M504.93 2.76a12.97 12.97 0 1 0-9.43 24.16z" fill="rgba(72, 86, 150, 1)"></path><path d="M588.66 203.53L593.68 203.53L593.68 229.64L588.66 229.64z" stroke="rgba(72, 86, 150, 1)"></path><path d="M103.82 497.05L154.66 497.05L154.66 547.89L103.82 547.89z" stroke="rgba(249, 199, 132, 1)"></path><path d="M195.78 256.27 a49.54 49.54 0 1 0 99.08 0 a49.54 49.54 0 1 0 -99.08 0z" stroke="rgba(72, 86, 150, 1)"></path><path d="M555.63 257.72a7.01 7.01 0 1 0-12.7 5.95z" fill="rgba(72, 86, 150, 1)"></path><path d="M316.37 282.13 a12.08 12.08 0 1 0 24.16 0 a12.08 12.08 0 1 0 -24.16 0z" fill="rgba(249, 199, 132, 1)"></path><path d="M247.37 529.67L281.73 529.67L281.73 564.03L247.37 564.03z" fill="rgba(72, 86, 150, 1)"></path><path d="M1193.74 369.49L1229.36 369.49L1229.36 386.85L1193.74 386.85z" stroke="rgba(231, 231, 231, 1)"></path><path d="M761.57-10.04a46.66 46.66 0 1 0-13.76 92.3z" stroke="rgba(72, 86, 150, 1)"></path><path d="M410.02 3.94L425.68 3.94L425.68 25L410.02 25z" stroke="rgba(231, 231, 231, 1)"></path><path d="M958.13 543.77L981.66 543.77L981.66 567.3L958.13 567.3z" stroke="rgba(249, 199, 132, 1)"></path><path d="M588.31 224.05L602.28 224.05L602.28 236.14L588.31 236.14z" fill="rgba(231, 231, 231, 1)"></path><path d="M366.25 311.82L404.62 311.82L404.62 364.66L366.25 364.66z" fill="rgba(72, 86, 150, 1)"></path><path d="M1136.42 391.07 a22.78 22.78 0 1 0 45.56 0 a22.78 22.78 0 1 0 -45.56 0z" stroke="rgba(72, 86, 150, 1)"></path><path d="M563.64 190.91L567.25 190.91L567.25 228.27L563.64 228.27z" fill="rgba(72, 86, 150, 1)"></path><path d="M1092.55 204.53 a26.84 26.84 0 1 0 53.68 0 a26.84 26.84 0 1 0 -53.68 0z" fill="rgba(72, 86, 150, 1)"></path><path d="M416.38 278.09L442.53 278.09L442.53 304.24L416.38 304.24z" fill="rgba(249, 199, 132, 1)"></path><path d="M648.3 152.02a7.46 7.46 0 1 0-14.74-2.3z" stroke="rgba(249, 199, 132, 1)"></path><path d="M1218.54 539.17a13.14 13.14 0 1 0 26.28 0.68z" stroke="rgba(231, 231, 231, 1)"></path><path d="M431.39 327.81L456.69 327.81L456.69 353.11L431.39 353.11z" fill="rgba(231, 231, 231, 1)"></path><path d="M926.3 449.47a18.79 18.79 0 1 0 32.02-19.66z" stroke="rgba(231, 231, 231, 1)"></path><path d="M418.89 517.45 a45.89 45.89 0 1 0 91.78 0 a45.89 45.89 0 1 0 -91.78 0z" fill="rgba(249, 199, 132, 1)"></path><path d="M516.13 177.06L570.98 177.06L570.98 231.91L516.13 231.91z" stroke="rgba(249, 199, 132, 1)"></path><path d="M654.26 316.75L701.96 316.75L701.96 364.45L654.26 364.45z" fill="rgba(72, 86, 150, 1)"></path><path d="M57.22 4.16 a4.48 4.48 0 1 0 8.96 0 a4.48 4.48 0 1 0 -8.96 0z" stroke="rgba(72, 86, 150, 1)"></path></g><defs><mask id="SvgjsMask1016"><rect width="1440" height="560" fill="#ffffff"></rect></mask></defs></svg>